# xmcd CD database file
#
# Track frame offsets:
#	150
#	31770
#	52517
#	78218
#	102552
#	119595
#	141550
#	159706
#	184139
#
# Disc length: 2881 seconds
#
# Revision: 0
# Processed by: cddbd v1.5.2PL0 Copyright (c) Steve Scherf et al.
# Submitted via: CDex 1.81
#
DISCID=730b3f09
DTITLE=Marlene - Marlene Sings Nettai Jazz
DYEAR=2009
DGENRE=Jazz
TTITLE0=Mais Que Nada
TTITLE1=Falling Deep
TTITLE2=Never Can Say Goodbye
TTITLE3=Que Hiciste
TTITLE4=I'll Never Fall In Love Again
TTITLE5=Ain't Nobody
TTITLE6=Ain't No Mountain High Enough
TTITLE7=It's Magic
TTITLE8=Could It Be Magic
EXTD=YEAR: 2009
EXTT0=
EXTT1=
EXTT2=
EXTT3=
EXTT4=
EXTT5=
EXTT6=
EXTT7=
EXTT8=
PLAYORDER=
